<svg width="125" height="87" viewBox="0 0 125 87" fill="none" xmlns="http://www.w3.org/2000/svg">
<path d="M61.0234 14.7968C94.6069 14.7969 121.831 27.9644 121.831 44.207C121.831 60.4495 94.607 73.617 61.0234 73.6171C27.4401 73.6171 0.214844 60.4495 0.214844 44.207C0.214959 27.9643 27.4402 14.7968 61.0234 14.7968ZM61.0234 18.5546C29.4552 18.5546 3.86328 30.0398 3.86328 44.207C3.8633 58.3745 29.4552 69.8593 61.0234 69.8593C92.5916 69.8592 118.183 58.3744 118.183 44.207C118.183 30.0399 92.5916 18.5547 61.0234 18.5546Z" fill="#CC9933"/>
<path fill-rule="evenodd" clip-rule="evenodd" d="M7.99102 13.0718L8.58869 15.947L8.31248 15.9839C8.28275 15.939 8.25599 15.9021 8.23428 15.8759C8.11446 15.7314 7.85117 15.6711 7.45022 15.6978C6.2011 15.7619 5.03224 16.194 3.94081 16.9947C3.45908 17.3481 3.07842 17.7153 2.80117 18.0988C2.60613 18.3829 2.49496 18.6686 2.47066 18.9646C2.44701 19.2563 2.51759 19.5041 2.68459 19.7057C2.95861 20.0361 3.35735 20.1063 3.87644 19.9154C4.14593 19.8161 4.66646 19.5368 5.44367 19.0791L6.59934 18.3962C7.28736 17.9936 7.87637 17.7023 8.36224 17.5252C8.84811 17.3481 9.32363 17.2493 9.79541 17.2271C10.2793 17.21 10.7523 17.3065 11.2146 17.5169C11.6786 17.7293 12.0725 18.028 12.3954 18.418C12.9056 19.0334 13.1493 19.7383 13.1256 20.5268C13.105 21.2427 12.7803 22.0021 12.1475 22.8011C11.6796 23.4018 11.1026 23.9517 10.4162 24.4555C9.18522 25.3587 7.73987 25.9723 6.07998 26.2995C5.73384 26.3737 5.53699 26.4301 5.48593 26.4677C5.42777 26.5103 5.37464 26.6268 5.3228 26.8128L5.04698 26.8636L4.27649 23.9745L4.54883 23.919C4.57959 23.9565 4.60312 23.9847 4.6176 24.0023C4.77736 24.1949 5.02216 24.3008 5.34969 24.3208C5.85016 24.3515 6.48649 24.2298 7.25206 23.9565C8.01984 23.6822 8.6806 23.3413 9.23446 22.9349C9.8395 22.4911 10.2765 22.0155 10.5425 21.5103C10.691 21.2287 10.7615 20.9481 10.754 20.6685C10.7488 20.3866 10.6647 20.1496 10.5049 19.957C10.2636 19.6658 9.92583 19.5785 9.48959 19.6982C9.1861 19.7834 8.65305 20.0479 7.88812 20.4932L6.75095 21.1624C5.99002 21.608 5.4354 21.9091 5.09365 22.0613C4.7519 22.2134 4.37756 22.3262 3.97235 22.402C3.39846 22.513 2.8331 22.4632 2.2786 22.2502C1.77593 22.0592 1.33852 21.7394 0.966524 21.2904C0.35127 20.5478 0.11318 19.7367 0.254197 18.8547C0.43412 17.6948 1.23499 16.593 2.65666 15.5495C3.25033 15.1138 3.85356 14.7629 4.4599 14.5009C5.06856 14.2373 5.88093 13.976 6.90346 13.715C7.24806 13.6203 7.44854 13.551 7.50903 13.5063C7.60455 13.4365 7.67395 13.3079 7.72022 13.1154L7.99102 13.0718ZM16.0682 14.0351L18.2484 18.7721C18.3186 18.9249 18.4119 19.0293 18.5263 19.0826C18.6408 19.136 18.8014 19.1491 19.0089 19.1248L19.1075 19.3391L16.1665 20.5375L16.068 20.3234C16.231 20.2027 16.3318 20.086 16.3688 19.9709C16.4059 19.8559 16.3887 19.7206 16.3171 19.5654L13.1742 12.7363C13.1025 12.5805 13.0106 12.4788 12.9014 12.4297C12.7918 12.3806 12.6302 12.3647 12.4159 12.3883L12.3174 12.1743L15.7269 10.7852L15.8253 10.9991C15.6171 11.1476 15.5453 11.2919 15.6097 11.4317C15.6649 11.5516 15.8133 11.6575 16.0565 11.7459L22.879 14.2435L20.7622 9.64387C20.6906 9.48851 20.5988 9.38654 20.4882 9.33509C20.3761 9.28068 20.2158 9.26733 20.0039 9.29616L19.9055 9.08213L22.8464 7.88354L22.9449 8.09784C22.7777 8.22361 22.6781 8.34277 22.6425 8.4538C22.6081 8.56793 22.6241 8.70055 22.6944 8.85346L25.8365 15.6801C25.9067 15.8327 25.9987 15.9347 26.1105 15.9891C26.221 16.0407 26.3827 16.0564 26.5969 16.0327L26.6955 16.247L23.5161 17.5424L23.4176 17.3284C23.6307 17.1904 23.7048 17.0509 23.6415 16.9133C23.6087 16.8421 23.5434 16.784 23.4472 16.7353C23.3481 16.688 23.1376 16.6014 22.8105 16.4773L16.0682 14.0351ZM31.1866 5.55191C32.6763 5.19297 34.0143 5.25178 35.2038 5.72796C36.6282 6.30495 37.5494 7.36108 37.9689 8.90257C38.3627 10.3501 38.0821 11.6472 37.1277 12.7975C36.3391 13.7501 35.2013 14.4053 33.712 14.7643C32.2196 15.1236 30.8872 15.0638 29.7091 14.5849C28.2791 14.0094 27.3609 12.975 26.9546 11.4821C26.5439 9.97306 26.8207 8.65052 27.7852 7.51527C28.5839 6.57766 29.7161 5.92378 31.1866 5.55191ZM31.6522 7.22874C30.683 7.46218 29.973 7.94298 29.5229 8.67327C29.1083 9.35497 29.012 10.1091 29.236 10.9322C29.4586 11.7501 29.9275 12.3652 30.6392 12.7757C31.4085 13.218 32.2802 13.3203 33.2552 13.0858C34.2215 12.8526 34.9307 12.3692 35.3792 11.6335C35.7953 10.957 35.8961 10.219 35.6794 9.4227C35.4436 8.55669 34.9703 7.92529 34.2629 7.53093C33.4924 7.10633 32.6215 7.00668 31.6522 7.22874ZM46.9669 5.93643L45.4658 11.0864C45.3899 11.3405 45.3643 11.5446 45.3837 11.7017C45.4206 12.0028 45.631 12.1668 46.0168 12.1893L46.0433 12.4043L42.4578 12.7938L42.4314 12.579C42.7647 12.4613 42.9149 12.2577 42.8802 11.9736C42.8622 11.8275 42.7849 11.6348 42.6513 11.3919L39.3493 5.4948C39.0947 5.04176 38.8918 4.74224 38.7374 4.59954C38.583 4.45413 38.3667 4.36304 38.0892 4.32879L38.0608 4.0974L41.7256 3.69928L41.754 3.93106C41.4124 4.07725 41.2546 4.26749 41.2829 4.49911C41.2968 4.61247 41.3791 4.79927 41.5273 5.06243L43.8573 9.13936L45.134 4.70155C45.2113 4.43619 45.2434 4.23698 45.2268 4.10178C45.194 3.83396 44.9781 3.67318 44.583 3.62354L44.5545 3.3918L48.8317 2.92737L48.8601 3.15915C48.5047 3.31245 48.34 3.52015 48.3725 3.78499C48.3871 3.90365 48.4587 4.07476 48.5837 4.29605L50.8581 8.37897L52.0762 3.87481C52.1292 3.6764 52.1472 3.50917 52.1298 3.3688C52.1112 3.21693 52.056 3.10536 51.9669 3.03427C51.8752 2.96318 51.7197 2.90709 51.5016 2.87207L51.4732 2.64032L55.2285 2.23277L55.2571 2.46412C54.9874 2.59131 54.7975 2.73801 54.6863 2.8979C54.5757 3.06115 54.452 3.38468 54.3154 3.86913L52.4899 10.3235C52.4259 10.5538 52.4058 10.7519 52.4264 10.92C52.4646 11.2319 52.6814 11.4015 53.0791 11.4225L53.1055 11.6374L49.3765 12.0423L49.3502 11.8274C49.7047 11.691 49.8652 11.475 49.8289 11.1771C49.8199 11.1028 49.7323 10.9219 49.57 10.6407L46.9669 5.93643ZM71.3786 4.1318L68.0778 10.2866C67.8911 10.597 67.7954 10.7951 67.787 10.8839C67.7636 11.1298 67.9584 11.3247 68.3751 11.4627L68.3497 11.7288L64.5727 11.4111L64.5979 11.1456C64.9895 11.1091 65.201 10.9397 65.2291 10.6441C65.2369 10.5637 65.1772 10.316 65.0566 9.90161L62.4618 1.46201C62.3326 1.04413 62.2086 0.758103 62.0871 0.602609C61.9655 0.447374 61.7775 0.336997 61.5235 0.265389L61.5487 0L65.6227 0.342032L65.5975 0.607658C65.229 0.651992 65.0343 0.797393 65.0113 1.04065C64.9997 1.16525 65.0268 1.34582 65.0987 1.5861L66.8784 7.62387L69.9521 1.96044C70.0846 1.71796 70.1565 1.55393 70.1641 1.47341C70.1876 1.22459 70.009 1.04787 69.6304 0.946534L69.6556 0.680671L73.9296 1.03974L73.9045 1.30561C73.5071 1.36946 73.2934 1.53014 73.2694 1.78167C73.2617 1.87034 73.2958 2.03487 73.3703 2.28098L75.2028 8.32328L78.0673 2.77306C78.2149 2.49813 78.2967 2.29069 78.31 2.14954C78.3327 1.91146 78.139 1.73616 77.7344 1.62732L77.7596 1.36146L81.7953 1.70077L81.7703 1.966C81.4751 2.01667 81.269 2.09678 81.149 2.20678C81.0289 2.31639 80.8588 2.57814 80.639 2.9893L76.4998 10.8627C76.3011 11.2393 76.197 11.4929 76.1849 11.6201C76.1597 11.8854 76.3469 12.0683 76.7495 12.1661L76.7243 12.4322L72.8942 12.11L72.9194 11.8444C73.3247 11.8177 73.5446 11.6544 73.5733 11.3532C73.5824 11.2507 73.515 10.9999 73.375 10.6003L71.3786 4.1318ZM90.4057 10.9867L85.1207 9.86232L84.3887 12.9096C84.3497 13.0718 84.3594 13.2081 84.4163 13.311C84.473 13.4141 84.5939 13.5166 84.7817 13.6164L84.727 13.8439L81.3938 13.1349L81.4483 12.9073C81.6559 12.9008 81.8104 12.8622 81.9122 12.7895C82.0143 12.7177 82.0851 12.5986 82.125 12.4337L83.8687 5.17474C83.9084 5.00929 83.8982 4.87618 83.8407 4.77574C83.783 4.67544 83.6625 4.57266 83.4747 4.473L83.5293 4.2454L86.8626 4.95435L86.8079 5.18223C86.5941 5.18999 86.4388 5.23186 86.3398 5.30463C86.2411 5.37482 86.171 5.49063 86.132 5.65297L85.5073 8.25334L90.7923 9.37746L91.417 6.77749C91.4559 6.61514 91.4484 6.48216 91.3937 6.38264C91.339 6.28233 91.2156 6.17943 91.022 6.07835L91.0766 5.85087L94.41 6.55998L94.3554 6.78735C94.1416 6.79639 93.9863 6.83708 93.8877 6.90726C93.7884 6.98003 93.7184 7.09613 93.6793 7.2586L91.9361 14.5148C91.897 14.6772 91.9074 14.8107 91.9636 14.9163C92.0206 15.0198 92.1413 15.1221 92.329 15.222L92.2743 15.4492L88.9411 14.7405L88.9957 14.513C89.2032 14.5053 89.3577 14.4674 89.4595 14.395C89.5616 14.3229 89.6327 14.2045 89.6724 14.0389L90.4057 10.9867ZM99.4949 9.21033L96.8463 16.2202C96.7871 16.377 96.7804 16.5101 96.8231 16.6218C96.8664 16.7305 96.9733 16.8461 97.1471 16.9662L97.0641 17.1857L93.8443 16.1084L93.9273 15.8888C94.1341 15.9051 94.2923 15.8837 94.4026 15.8237C94.5133 15.7634 94.5986 15.6535 94.6588 15.494L97.3083 8.48173C97.3688 8.32236 97.3751 8.18883 97.3309 8.08258C97.2865 7.97646 97.1795 7.8613 97.0057 7.74122L97.0888 7.52123L100.309 8.59845L100.226 8.81843C100.012 8.80305 99.8531 8.82618 99.7464 8.88486C99.6385 8.94613 99.5542 9.05367 99.4949 9.21033ZM106.956 13.0712L103.927 19.0496C103.851 19.1998 103.83 19.3319 103.86 19.4469C103.891 19.5597 103.985 19.6845 104.145 19.8208L104.038 20.0313L100.953 18.6474L101.06 18.4368C101.264 18.4733 101.424 18.4677 101.54 18.4186C101.657 18.3691 101.754 18.268 101.831 18.1151L104.862 12.1319L102.284 10.9754C102.116 10.9002 101.973 10.8792 101.854 10.9084C101.73 10.9389 101.603 11.0294 101.462 11.1787L101.254 11.0856L102.481 8.66385L102.688 8.75729C102.65 8.94911 102.656 9.09931 102.705 9.20788C102.755 9.31633 102.865 9.40848 103.03 9.48293L110.289 12.739C110.454 12.8132 110.6 12.8353 110.72 12.8059C110.842 12.7776 110.969 12.6876 111.112 12.5358L111.319 12.6289L110.093 15.0502L109.885 14.957C109.919 14.7604 109.914 14.6102 109.861 14.5006C109.81 14.3948 109.703 14.3034 109.535 14.2281L106.956 13.0712ZM112.755 20.3683L111.295 22.1286L116.126 25.6738C116.266 25.7764 116.399 25.8285 116.522 25.8237C116.646 25.8199 116.794 25.7586 116.967 25.6355L117.162 25.779L115.409 27.8943L115.213 27.7507C115.295 27.5712 115.324 27.4233 115.298 27.3058C115.272 27.1882 115.188 27.0772 115.048 26.9745L107.956 21.7694L108.108 21.5852C108.299 21.6619 108.456 21.6895 108.581 21.665C108.706 21.6405 108.824 21.5614 108.935 21.4278L113.799 15.5595C113.909 15.4262 113.96 15.3013 113.954 15.1873C113.947 15.0736 113.884 14.9326 113.76 14.7669L113.912 14.5831L120.802 19.6396C120.947 19.7457 121.082 19.7954 121.205 19.7906C121.331 19.788 121.478 19.7272 121.65 19.6063L121.831 19.7398L120.078 21.8547L119.897 21.7216C119.981 21.5338 120.008 21.3844 119.982 21.2704C119.954 21.1551 119.869 21.0465 119.724 20.9404L115.096 17.5434L113.789 19.1199L116.659 21.2259C116.798 21.3281 116.933 21.3779 117.056 21.3735C117.18 21.3683 117.33 21.3101 117.506 21.1925L117.687 21.3257L115.977 23.3885L115.796 23.2551C115.877 23.0715 115.904 22.922 115.88 22.806C115.852 22.6909 115.768 22.58 115.624 22.4738L112.755 20.3683Z" fill="#CC9933"/>
<path fill-rule="evenodd" clip-rule="evenodd" d="M39.0785 33.8058C38.8385 33.9689 38.8385 34.0232 38.5452 34.2679L38.3052 34.3767H38.0916C37.9051 34.3767 37.3183 34.2679 37.1583 34.2136L35.4249 33.7242C31.3708 32.7723 23.0231 31.1955 19.0493 35.7635C17.6091 37.4492 17.3423 39.7331 17.9824 41.3919C19.3426 45.0084 24.8368 45.4163 26.4902 45.5794L30.1706 45.96C30.4107 46.0142 33.531 46.2047 34.1179 47.0477C34.3847 47.4282 34.3847 47.8361 34.2247 48.2982C33.8778 49.1685 32.971 49.5765 31.9576 49.8754C28.864 50.7454 22.9166 50.0658 20.6763 48.3798C19.6626 47.5913 19.8495 47.3739 19.9295 46.4766L19.5826 46.2863L16.6758 53.6551L17.1023 53.8182L17.6891 53.1926L18.6761 53.4373C23.4499 55.0145 33.4246 56.8906 38.0916 52.0779C40.0654 50.0385 40.3054 47.3739 39.6385 45.4978C38.4384 41.8271 34.2247 41.4734 31.6644 41.1472L27.2371 40.6032C26.7035 40.5761 23.7699 40.2769 23.2899 39.3254C23.0766 38.9174 23.2099 38.5369 23.5299 38.0744C24.7833 36.3887 29.5041 36.9055 30.8907 37.0956C31.9845 37.2587 32.8377 37.4218 33.9578 37.7482C34.838 37.9929 35.2381 38.156 35.4512 38.2375C36.3582 38.6185 36.2249 38.6727 36.3049 39.5427L36.705 39.7059L39.4786 34.1048L39.0785 33.8058ZM43.2657 33.2618V33.6696C43.6923 34.0505 43.639 34.2678 43.7723 34.6756L49.5865 52.7031L49.8797 53.7635C49.6666 54.3076 49.4265 54.3618 49.1065 54.4434L49.0528 54.9329H57.7207L57.7742 54.6065L57.6942 54.4434H57.5342L57.2406 54.3891C57.0006 54.1444 56.9474 54.0899 56.9206 53.8451L57.1874 52.7031L61.2678 39.57L64.9215 52.7031C64.9751 52.8119 65.2152 53.7366 65.2152 53.8451C65.0283 54.525 64.7351 54.3076 64.3351 54.525V54.9329H72.6825L72.7092 54.5524L71.9359 54.0629C71.9359 53.9268 71.9359 53.7635 71.9359 53.682L71.9891 53.5734L72.0692 53.4103L78.1231 35.1379C78.1766 34.8932 78.3366 34.0505 78.9499 33.8058V33.3163H72.2559V33.8058L73.0025 34.2136V34.8389L72.7892 35.4914L69.002 46.8299L65.8016 34.9748C65.6152 34.5125 65.6685 34.5398 65.6685 34.2136L66.3085 33.7242V33.2618H56.7606L56.6806 33.7242C57.4007 33.9689 57.5607 33.8327 57.5607 34.4583C57.6142 34.7574 57.3206 35.3826 57.2406 35.6272L57.0006 36.5519L56.9206 36.8782L56.8406 37.1228L53.6935 47.1835L49.9866 35.2194C49.9597 35.002 49.8266 34.7573 49.7997 34.6215C49.7997 34.431 49.7997 34.1863 49.7997 34.0505L50.5998 33.7242V33.2618H43.2657ZM82.3104 33.2618L82.2835 33.7242C82.6836 33.7242 83.2169 33.9142 83.2169 34.2679C83.2969 34.431 83.2436 35.301 83.2436 35.3826V54.0629L82.3104 54.4434V54.9329H90.4713V54.3891C90.0178 54.3891 89.5645 54.3076 89.4577 53.8451C89.3512 53.7366 89.3512 52.812 89.3512 52.7304V51.5612C89.3512 51.2079 89.3512 50.7454 89.3512 50.4465V46.803H95.2186C97.779 46.7214 101.459 46.7483 103.38 43.5128C104.553 41.6093 104.473 38.5369 103.54 36.8239C101.406 32.9354 96.2052 33.2618 93.8049 33.2618H82.3104ZM89.3512 42.534V37.7755H93.0316C94.0985 37.7755 97.5121 37.286 98.5255 39.0807C98.7655 39.4885 98.8455 40.7394 98.5255 41.2288C97.5121 42.8602 94.5785 42.4797 93.4049 42.534H89.3512Z" fill="#CC9933"/>
<path fill-rule="evenodd" clip-rule="evenodd" d="M10.3947 63.1259L5.62284 60.3158L5.53042 60.4787C5.67803 60.5659 5.85769 60.6544 5.78932 60.9487C5.79707 61.0206 5.59169 61.384 5.55602 61.4469L0.945745 69.5843L0.668877 70.0737C0.474478 70.2432 0.374192 70.2176 0.127961 70.0728L0 70.2985L3.13623 72.1453L3.26419 71.9196C3.11516 71.7483 2.90617 71.6252 2.97455 71.3309C2.97972 71.2338 3.1842 70.9025 3.2412 70.8022L6.96335 64.232L6.10161 73.5402L13.551 68.2953C13.4659 68.4456 13.354 68.6139 13.3115 68.6893L9.83761 74.8206C9.78785 74.9082 9.70794 75.0786 9.64409 75.1917C9.58024 75.3043 9.48253 75.4477 9.24328 75.4069L9.04448 75.3234L8.94133 75.5636L12.4094 77.6058L12.5005 77.3587L12.2753 76.8579L17.134 68.2815C17.1979 68.1689 17.3045 67.9807 17.39 67.83C17.6733 67.5623 17.5775 67.6731 17.9346 67.7664L18.0554 67.5533L13.1728 64.678L13.0572 64.911L13.3577 65.4226C13.2513 65.6103 13.1435 65.7141 12.9525 65.819L9.14633 68.4271L9.62366 63.7919C9.64718 63.6052 9.6353 63.4812 9.77063 63.2431L10.3339 63.2907L10.3947 63.1259ZM20.9268 70.3951L20.8241 70.6498L21.0489 70.9145L14.9931 77.5706L14.6328 77.9178C14.4462 78.0656 14.2452 77.9937 14.2049 77.9793L14.0933 78.2154L17.122 79.2998L17.2327 79.1093L17.0725 79.0057L16.9675 78.8301C17.0147 78.6935 17.0737 78.6534 17.1516 78.5584L18.0868 77.6349L22.7502 79.3045C22.8589 80.387 22.8655 79.975 22.8492 81.0281L22.6196 81.0384L22.4822 81.2194L25.859 82.4284L25.9249 82.2373C25.6969 82.1555 25.6483 82.1226 25.5666 81.8787C25.5025 81.6715 25.5281 81.466 25.5258 81.3419L24.6925 72.8796C24.7028 72.4996 24.5681 72.4973 24.7881 72.2079L25.0539 72.1799L25.148 71.9067L20.9268 70.3951ZM19.283 76.3905L22.1653 73.3555L22.5665 77.566L19.283 76.3905ZM29.5341 73.3541L29.485 73.5952C29.7069 73.7159 29.8583 73.6153 29.964 73.9484C30.0109 74.0026 29.8815 74.4928 29.8668 74.5638L28.2505 82.4592L28.0986 82.6335L27.6955 82.548L27.6434 82.803L31.2164 83.5635L31.2687 83.3085C30.9628 83.2431 30.8322 83.1713 30.8035 82.9579C30.7761 82.8781 30.878 82.382 30.8808 82.3677L30.9881 81.8434C31.0142 81.716 31.0461 81.56 31.0635 81.4749L31.9399 77.1942L35.9078 83.8224L35.8787 83.964L35.2645 84.1292L35.1647 84.4038L39.0713 85.2353L39.1237 84.9799L38.5752 84.6117L40.1916 76.7169C40.2239 76.5606 40.2713 76.1862 40.3641 76.0877C40.6137 75.8599 40.6909 75.9798 40.9635 75.9933L41.0128 75.7527L37.3149 74.9654L37.2602 75.1609C37.4929 75.2994 37.6387 75.2266 37.7505 75.5315C37.7775 75.6112 37.6763 76.0335 37.6619 76.1044C37.6211 76.3026 37.5777 76.5155 37.5429 76.6855C37.5081 76.8556 37.4675 77.054 37.4328 77.2241L36.8898 79.8747L34.2333 75.4189C34.0133 75.0763 33.95 74.9593 33.9819 74.8035L34.4374 74.6341L34.5116 74.4133L29.5341 73.3541ZM45.6105 76.2763L45.5705 76.5486L45.8506 76.7509L41.5251 84.6868L41.2563 85.1112C41.1098 85.3001 40.8976 85.2793 40.8553 85.2749L40.8022 85.5317L43.9967 85.8489L44.0599 85.6367L43.8803 85.5754L43.7373 85.43C43.7509 85.2863 43.7988 85.2326 43.8523 85.1216L44.5448 83.9974L49.4642 84.4859C49.8228 85.5105 49.7328 85.1092 49.9629 86.136L49.7426 86.201L49.6511 86.4104L53.2135 86.7642L53.2327 86.5625C52.9923 86.5385 52.9371 86.5186 52.8008 86.3013C52.6904 86.1157 52.6671 85.9099 52.6357 85.79L49.8488 77.7738C49.7699 77.4021 49.6384 77.4326 49.7845 77.0981L50.0359 77.0068L50.0634 76.7183L45.6105 76.2763ZM45.4158 82.4981L47.5053 78.8504L48.8793 82.8421L45.4158 82.4981ZM65.1181 77.5252C64.7319 77.7963 64.7319 77.7963 64.3359 77.6181C62.3244 77.1323 58.8791 76.5445 56.8017 78.245C55.2827 79.5171 54.9518 81.2366 55.066 82.5409C55.2071 83.976 55.9019 85.4173 57.4127 86.2594C59.6866 87.501 64.3118 86.6249 66.5266 85.3604L66.5279 85.1868C66.2734 85.0969 66.1015 85.24 65.9494 84.8474C65.9507 84.6879 65.9833 84.3118 65.9417 84.181L65.9494 83.5152C65.952 83.2979 65.9546 83.0374 65.9558 82.8635L65.9691 81.6183L62.9724 81.5854C62.8019 81.5828 62.5606 81.5803 62.4042 81.579L61.9498 81.5738C61.9072 81.5735 61.4385 81.5686 61.4385 81.5686C61.1706 81.3918 61.1716 81.276 61.0889 81.0725L60.8757 81.0555L60.8478 83.705L61.1032 83.737C61.2197 83.4631 61.0929 83.3602 61.4636 83.2342C61.6482 83.2368 61.8898 83.2394 62.0459 83.2407L62.6566 83.2471C62.8413 83.2497 63.1109 83.2523 63.2816 83.2536L63.2672 84.6143C61.8992 85.0047 59.9797 85.2153 58.8539 84.2328C57.8404 83.3673 57.8101 82.2084 57.9172 81.4423C58.055 80.517 58.6166 79.7846 59.4871 79.4179C60.7714 78.8671 62.7568 79.135 64.0108 80.0898L63.966 80.3214L64.2205 80.4252L65.3296 77.6137L65.1181 77.5252ZM77.487 75.6878C77.4203 76.0578 77.4242 76.1009 77.1491 76.2137C77.0682 76.2654 76.6978 76.271 76.6133 76.2789L67.4059 77.1425L67.4308 77.4164C68.1859 77.5635 68.0444 77.5771 68.122 78.2822L68.7754 85.5206C68.7819 85.5927 68.8248 86.0685 68.7889 86.1444C68.6491 86.4922 68.4432 86.4241 68.2814 86.5265L68.3047 86.7862L77.4837 85.9251C77.5823 85.9161 77.9746 85.8355 78.0352 85.8736C78.4132 85.9541 78.3721 86.1327 78.4485 86.3438L78.6745 86.3224L78.4024 83.3088L78.1765 83.3299C78.1035 83.4677 78.1817 83.5474 78.1047 83.6419C78.0019 83.7682 77.9237 83.8483 77.8145 83.9022C77.7333 83.9532 77.2785 83.9667 77.2358 83.9708L71.5786 84.5014L71.3796 82.2956L73.7983 82.0686C74.0807 82.0419 74.3636 82.0156 74.6184 81.9916L74.9437 81.961C75.0145 81.9546 75.4244 81.9162 75.4864 81.9688C75.8519 82.0655 75.8219 82.2136 75.8388 82.4009L76.0933 82.3771L75.8411 79.5796L75.597 79.5591C75.4121 79.8816 75.5573 79.9115 75.2154 80.0748C75.0379 80.1639 74.7527 80.1615 74.6254 80.1736C74.4416 80.1909 74.2011 80.2135 74.0456 80.2281C73.8757 80.2439 73.6778 80.2624 73.4796 80.2812L71.2168 80.4935L71.0543 78.691L76.7824 78.1536C76.881 78.1445 77.2771 78.1073 77.3365 78.1307C77.6788 78.2876 77.7147 78.3714 77.7356 78.6025L77.9758 78.5798L77.717 75.7101L77.487 75.6878ZM78.6754 76.1813L78.7192 76.4234C78.8997 76.4627 79.1664 76.3392 79.223 76.6524C79.2803 76.7298 79.35 77.1145 79.3653 77.1998L80.7913 85.074L80.3884 85.4004L80.4206 85.6592L83.7171 85.0388L83.6783 84.8251C82.9364 84.7148 83.054 84.6484 82.9354 83.9931L82.858 83.5661C82.8296 83.4096 82.7988 83.2387 82.7833 83.1534L81.9428 78.5111L86.1389 83.9792L88.2033 77.2736L89.0106 81.7306C89.0543 81.9728 89.093 82.1862 89.1317 82.3999L89.2038 82.7986C89.2141 82.8555 89.3019 83.3396 89.2982 83.3991C89.1279 83.8142 89.069 83.6486 88.8101 83.8151L88.8567 84.0714L92.4598 83.3932L92.4133 83.1367C92.2189 83.0998 92.0161 83.2556 91.854 82.9179L91.7559 82.377L90.304 74.3606L90.7001 74.1533L90.6586 73.9255L85.9241 74.8167L85.9652 75.0446L86.5208 75.1609L85.3641 79.2219L82.9399 75.8054L83.0352 75.611L83.2865 75.5638L83.2705 75.3163L78.6754 76.1813ZM100.779 70.0192C100.793 70.3951 100.806 70.4364 100.561 70.6078C100.494 70.6759 100.134 70.7638 100.053 70.7906L91.2527 73.6833L91.3354 73.9452C92.1039 73.9209 91.9687 73.9651 92.1957 74.6359L94.3834 81.5542C94.4053 81.623 94.549 82.078 94.5304 82.1601C94.4685 82.5304 94.2531 82.5101 94.1169 82.6458L94.1954 82.8939L102.968 80.0102C103.063 79.9792 103.428 79.8135 103.495 79.8369C103.882 79.8317 103.88 80.0149 103.999 80.2037L104.216 80.1327L103.305 77.2523L103.089 77.3232C103.047 77.4742 103.14 77.5346 103.085 77.6439C103.012 77.79 102.952 77.8855 102.858 77.9623C102.789 78.0304 102.348 78.1447 102.308 78.1581L96.9007 79.9355L96.2338 77.8272L98.5453 77.0672C98.8156 76.9784 99.0859 76.8896 99.3291 76.8096L99.64 76.7075C99.7076 76.6853 100.1 76.5563 100.171 76.5935C100.548 76.6067 100.551 76.7576 100.608 76.9368L100.851 76.857L100.006 74.1833L99.7631 74.2175C99.6518 74.5735 99.7998 74.5702 99.5011 74.8056C99.3473 74.9323 99.068 74.9936 98.9466 75.0335C98.771 75.0911 98.5409 75.1669 98.3925 75.2155C98.23 75.2689 98.0412 75.3313 97.8516 75.3935L95.6889 76.1044L95.1442 74.3817L100.619 72.5819C100.713 72.5508 101.092 72.4264 101.155 72.4361C101.522 72.5133 101.575 72.5868 101.645 72.8076L101.875 72.7322L101.007 69.9896L100.779 70.0192ZM101.489 70.7879L101.601 71.0063C101.848 70.9562 101.902 70.7805 102.191 70.9696C102.261 70.9812 102.466 71.4439 102.499 71.5082L106.161 78.6574L106.152 78.8906L105.787 79.0849L105.905 79.316L109.141 77.5935L109.022 77.3624C108.745 77.5099 108.6 77.5383 108.445 77.3921C108.374 77.3481 108.144 76.8989 108.138 76.8861L107.894 76.4111C107.835 76.2959 107.763 76.1545 107.723 76.0775L105.738 72.201L112.929 74.7603L112.995 74.8883L112.622 75.4131L112.716 75.6898L116.254 73.8065L116.135 73.5755L115.482 73.6452L111.821 66.4963C111.748 66.3549 111.552 66.0347 111.562 65.8985C111.614 65.561 111.748 65.6038 111.967 65.4379L111.855 65.2198L108.507 67.0026L108.586 67.189C108.852 67.1457 108.92 66.9953 109.196 67.1586C109.266 67.2026 109.451 67.5945 109.484 67.6587C109.576 67.8385 109.674 68.0311 109.753 68.1851C109.832 68.3389 109.924 68.5187 110.003 68.6726L111.232 71.0729L106.406 69.346C106.023 69.2235 105.902 69.1736 105.829 69.0326L106.076 68.6072L105.996 68.3885L101.489 70.7879ZM112.4 64.4308L114.337 67.0404L114.513 66.9413L114.394 66.3972L117.021 64.3701L120.758 69.4047C120.835 69.5085 121.032 69.7741 121.05 69.8696C121.153 70.1528 121.032 70.2288 120.884 70.3422L121.005 70.5765L124.085 68.1999L123.914 67.9689L123.653 68.1698L123.426 68.1275L119.321 62.5963L120.363 61.7928L121.303 61.0675C121.337 61.0414 121.767 60.7092 121.767 60.7092C122.121 60.5629 122.193 60.7798 122.288 60.9068L122.509 60.7728L120.58 58.1747L120.487 58.1925L120.419 58.2447L120.459 58.3226L120.488 58.4097C120.562 58.6062 120.509 58.702 120.484 58.812C120.456 58.9428 120.062 59.1559 119.982 59.2172L113.516 64.2059L113.074 64.5469C112.793 64.6 112.721 64.383 112.57 64.2998L112.4 64.4308Z" fill="#CC9933"/>
</svg>
